# Blender v2.63 (sub 0) OBJ File: 'borehole.blend'
# www.blender.org
mtllib borehole.mtl
o Cylinder
v -0.042581 9.162014 -15.203161
v 5.771032 -16.071815 -14.046762
v 5.771032 9.162014 -14.046762
v 10.699575 -16.071815 -10.753614
v 10.699575 9.162014 -10.753614
v 13.992723 -16.071815 -5.825071
v 13.992723 9.162014 -5.825071
v -0.042581 -16.071815 -19.066412
v 13.992722 -16.071815 5.802157
v 13.992722 9.162014 5.802157
v 10.699574 -16.071815 10.730700
v 10.699574 9.162014 10.730700
v 5.771033 -16.071815 14.023847
v 5.771033 9.162014 14.023847
v -0.042579 -16.071815 15.180246
v -0.042579 9.162014 15.180246
v -5.856191 -16.071815 14.023848
v -5.856191 9.162014 14.023848
v -10.784735 -16.071815 10.730703
v -10.784735 9.162014 10.730703
v -14.077885 -16.071815 5.802158
v -14.077885 9.162014 5.802158
v -15.234284 -16.071815 -0.011458
v -15.234284 9.162014 -0.011458
v -14.077885 -16.071815 -5.825074
v -14.077885 9.162014 -5.825074
v -10.784735 -16.071815 -10.753618
v -10.784735 9.162014 -10.753618
v -5.856188 -16.071815 -14.046765
v -5.856188 9.162014 -14.046765
v -0.042581 14.780615 -10.544281
v 3.988157 14.780615 -9.742518
v 7.405250 14.780615 -7.459290
v 9.688478 14.780615 -4.042195
v 10.490242 14.780615 -0.011458
v 9.688478 14.780615 4.019280
v 7.405250 14.780615 7.436372
v 3.988157 14.780615 9.719602
v -0.042579 14.780615 10.521366
v -4.073315 14.780615 9.719603
v -7.490410 14.780615 7.436375
v -9.773642 14.780615 4.019280
v -10.575405 14.780615 -0.011458
v -9.773641 14.780615 -4.042197
v -7.490410 14.780615 -7.459292
v -4.073313 14.780615 -9.742520
v -0.042581 14.780615 -8.041286
v 3.030302 14.780615 -7.430054
v 5.635366 14.780615 -5.689405
v 7.376014 14.780615 -3.084341
v 7.987249 14.780615 -0.011458
v 7.376014 14.780615 3.061425
v 5.635366 14.780615 5.666488
v 3.030303 14.780615 7.407136
v -0.042580 14.780615 8.018373
v -3.115461 14.780615 7.407137
v -5.720526 14.780615 5.666490
v -7.461176 14.780615 3.061426
v -8.072412 14.780615 -0.011458
v -7.461175 14.780615 -3.084342
v -5.720526 14.780615 -5.689407
v -3.115460 14.780615 -7.430056
v -0.042581 0.461281 -8.041286
v 3.030302 0.461281 -7.430054
v 5.635366 0.461281 -5.689405
v 7.376014 0.461281 -3.084341
v 7.987249 0.461281 -0.011458
v 7.376014 0.461281 3.061425
v 5.635366 0.461281 5.666488
v 3.030303 0.461281 7.407136
v -0.042580 0.461281 8.018373
v -3.115461 0.461281 7.407137
v -5.720526 0.461281 5.666490
v -7.461176 0.461281 3.061426
v -8.072412 0.461281 -0.011458
v -7.461175 0.461281 -3.084342
v -5.720526 0.461281 -5.689407
v -3.115460 0.461281 -7.430056
v 20.190109 -16.370296 -5.825069
v 20.190109 8.863533 -5.825069
v 21.346510 -16.370296 -0.011456
v 21.346510 8.863533 -0.011456
v 20.190107 -16.370296 5.802158
v 20.190107 8.863533 5.802158
v 15.885863 14.482138 -4.042194
v 16.687628 14.482138 -0.011457
v 15.885862 14.482138 4.019281
v -0.042581 9.162014 -19.066412
v 5.771032 -16.071815 -17.910013
v 5.771032 9.162014 -17.910013
v -5.856188 -16.071815 -17.910015
v -5.856188 9.162014 -17.910015
v -13.708455 -16.071815 12.684273
v -13.708455 5.013163 12.684273
v -17.001604 -16.071815 7.755727
v -17.001604 5.013163 7.755727
v 5.771032 9.162014 -14.046762
v 5.771032 9.162014 -14.046762
v 5.771032 9.162014 -14.046762
v -0.042581 9.162014 -15.203161
v 5.771032 -16.071815 -14.046762
v 10.699575 9.162014 -10.753614
v 13.992723 9.162014 -5.825071
v 13.992723 9.162014 -5.825071
v 13.992723 -16.071815 -5.825071
v 9.688478 14.780615 -4.042195
v 9.688478 14.780615 -4.042195
v 15.885863 14.482138 -4.042194
v 15.885863 14.482138 -4.042194
v 9.688478 14.780615 4.019280
v 9.688478 14.780615 4.019280
v 15.885862 14.482138 4.019281
v 15.885862 14.482138 4.019281
v 13.992722 9.162014 5.802157
v 13.992722 9.162014 5.802157
v 13.992722 -16.071815 5.802157
v 10.699574 9.162014 10.730700
v 5.771033 9.162014 14.023847
v -0.042579 9.162014 15.180246
v -5.856191 9.162014 14.023848
v -10.784735 9.162014 10.730703
v -10.784735 9.162014 10.730703
v -10.784735 -16.071815 10.730703
v -14.077885 9.162014 5.802158
v -14.077885 9.162014 5.802158
v -14.077885 -16.071815 5.802158
v -15.234284 9.162014 -0.011458
v -14.077885 9.162014 -5.825074
v -10.784735 9.162014 -10.753618
v -5.856188 9.162014 -14.046765
v -5.856188 9.162014 -14.046765
v -5.856188 9.162014 -14.046765
v -5.856188 -16.071815 -14.046765
v 3.988157 14.780615 -9.742518
v -0.042581 14.780615 -10.544281
v 7.405250 14.780615 -7.459290
v 7.405250 14.780615 7.436372
v 3.988157 14.780615 9.719602
v -0.042579 14.780615 10.521366
v -4.073315 14.780615 9.719603
v -7.490410 14.780615 7.436375
v -9.773642 14.780615 4.019280
v -10.575405 14.780615 -0.011458
v -9.773641 14.780615 -4.042197
v -7.490410 14.780615 -7.459292
v -4.073313 14.780615 -9.742520
v 3.030302 14.780615 -7.430054
v -0.042581 14.780615 -8.041286
v 5.635366 14.780615 -5.689405
v 7.376014 14.780615 -3.084341
v 7.987249 14.780615 -0.011458
v 7.376014 14.780615 3.061425
v 5.635366 14.780615 5.666488
v 3.030303 14.780615 7.407136
v -0.042580 14.780615 8.018373
v -3.115461 14.780615 7.407137
v -5.720526 14.780615 5.666490
v -7.461176 14.780615 3.061426
v -8.072412 14.780615 -0.011458
v -7.461175 14.780615 -3.084342
v -5.720526 14.780615 -5.689407
v -3.115460 14.780615 -7.430056
v 3.030302 0.461281 -7.430054
v -0.042581 0.461281 -8.041286
v 5.635366 0.461281 -5.689405
v 7.376014 0.461281 -3.084341
v 7.987249 0.461281 -0.011458
v 7.376014 0.461281 3.061425
v 5.635366 0.461281 5.666488
v 3.030303 0.461281 7.407136
v -0.042580 0.461281 8.018373
v -3.115461 0.461281 7.407137
v -5.720526 0.461281 5.666490
v -7.461176 0.461281 3.061426
v -8.072412 0.461281 -0.011458
v -7.461175 0.461281 -3.084342
v -5.720526 0.461281 -5.689407
v -3.115460 0.461281 -7.430056
v 20.190109 8.863533 -5.825069
v 20.190109 8.863533 -5.825069
v 20.190109 -16.370296 -5.825069
v 21.346510 8.863533 -0.011456
v 20.190107 8.863533 5.802158
v 20.190107 8.863533 5.802158
v 20.190107 -16.370296 5.802158
v 16.687628 14.482138 -0.011457
v 5.771032 9.162014 -17.910013
v 5.771032 9.162014 -17.910013
v -0.042581 9.162014 -19.066412
v 5.771032 -16.071815 -17.910013
v -5.856188 9.162014 -17.910015
v -5.856188 9.162014 -17.910015
v -5.856188 -16.071815 -17.910015
v -13.708455 5.013163 12.684273
v -13.708455 5.013163 12.684273
v -13.708455 -16.071815 12.684273
v -17.001604 5.013163 7.755727
v -17.001604 5.013163 7.755727
v -17.001604 -16.071815 7.755727
vt 0.294706 0.784039
vt 0.294706 0.540052
vt 0.326260 0.540052
vt 0.326260 0.784039
vt 0.748103 0.019644
vt 0.748103 0.413945
vt 0.679850 0.413945
vt 0.679850 0.019644
vt 0.617450 0.413945
vt 0.617450 0.019644
vt 0.816328 0.676524
vt 0.791885 0.796042
vt 0.607617 0.794984
vt 0.632073 0.675476
vt 0.940153 0.019644
vt 0.940153 0.413945
vt 0.873923 0.413945
vt 0.873923 0.019644
vt 0.807350 0.413945
vt 0.807350 0.019644
vt 0.429507 0.784039
vt 0.429507 0.540052
vt 0.461124 0.540052
vt 0.461124 0.823591
vt 0.679850 0.526717
vt 0.617450 0.526717
vt 0.243346 0.823591
vt 0.192189 0.823591
vt 0.192189 0.784039
vt 0.243346 0.784039
vt 0.539262 0.896040
vt 0.437437 0.963241
vt 0.409394 0.894432
vt 0.487020 0.843202
vt 0.807350 0.526717
vt 0.748103 0.526717
vt 0.940153 0.526717
vt 0.873923 0.526717
vt 0.499810 0.358250
vt 0.499810 0.281030
vt 0.552175 0.281030
vt 0.552175 0.358250
vt 0.793246 0.556737
vt 0.608979 0.555699
vt 0.115971 0.187955
vt 0.086939 0.187955
vt 0.086939 0.028190
vt 0.115971 0.028190
vt 0.198133 0.961874
vt 0.097085 0.893518
vt 0.149923 0.841280
vt 0.226958 0.893391
vt 0.201430 0.384146
vt 0.321217 0.361030
vt 0.320793 0.435330
vt 0.229472 0.452954
vt 0.539130 0.766165
vt 0.317649 0.986358
vt 0.318073 0.912056
vt 0.099608 0.451345
vt 0.151846 0.504183
vt 0.557786 0.675053
vt 0.031252 0.552394
vt 0.099735 0.581219
vt 0.540168 0.583735
vt 0.006769 0.671910
vt 0.081070 0.672333
vt 0.541782 0.453871
vt 0.488941 0.506109
vt 0.029887 0.791696
vt 0.098693 0.763654
vt 0.440733 0.385513
vt 0.411906 0.453996
vt 0.733822 0.859917
vt 0.710792 0.836886
vt 0.680700 0.824422
vt 0.648130 0.824422
vt 0.746287 0.890008
vt 0.618039 0.836886
vt 0.746287 0.922579
vt 0.595008 0.859917
vt 0.733822 0.952670
vt 0.582544 0.890008
vt 0.710792 0.975701
vt 0.680700 0.988165
vt 0.582544 0.922579
vt 0.648130 0.988165
vt 0.595008 0.952670
vt 0.618039 0.975701
vt 0.174035 0.189414
vt 0.145003 0.189414
vt 0.145003 0.029650
vt 0.174035 0.029650
vt 0.086939 0.189414
vt 0.057907 0.189414
vt 0.057907 0.029650
vt 0.086939 0.029650
vt 0.145003 0.187955
vt 0.145003 0.028190
vt 0.203067 0.189414
vt 0.203067 0.029650
vt 0.115971 0.189414
vt 0.115971 0.029650
vt 0.174035 0.187955
vt 0.174035 0.028190
vt 0.232099 0.189415
vt 0.232099 0.029650
vt 0.203067 0.187955
vt 0.203067 0.028190
vt 0.261131 0.189415
vt 0.261131 0.029650
vt 0.232099 0.187955
vt 0.232099 0.028190
vt 0.057907 0.187955
vt 0.028875 0.187955
vt 0.028875 0.028190
vt 0.057907 0.028190
vt 0.261131 0.187955
vt 0.261131 0.028190
vt 0.028875 0.189414
vt 0.028875 0.029650
vt 0.499810 0.010172
vt 0.449957 0.281030
vt 0.449957 0.010172
vt 0.400104 0.281030
vt 0.400104 0.010172
vt 0.449957 0.358250
vt 0.400104 0.358250
vt 0.347739 0.358250
vt 0.347739 0.281030
vt 0.552175 0.010172
vt 0.347739 0.010172
vt 0.243346 0.540052
vt 0.192189 0.540052
vt 0.160248 0.784039
vt 0.160248 0.540052
vt 0.294706 0.823591
vt 0.376210 0.784039
vt 0.376210 0.540052
vt 0.429507 0.823591
vt 0.376210 0.823591
vt 0.344593 0.823591
vt 0.344593 0.540052
vn -1.000000 0.000000 0.000000
vn 0.555559 0.000000 -0.831446
vn 0.707083 0.000000 -0.707083
vn 0.831446 0.000000 -0.555559
vn 0.048097 0.998840 0.000000
vn 0.048097 0.998779 -0.009552
vn 0.016022 0.999847 -0.003174
vn 0.027039 0.999603 0.000000
vn 0.831446 0.000000 0.555559
vn 0.707083 0.000000 0.707083
vn 0.382672 0.000000 0.923856
vn 0.000000 0.000000 1.000000
vn -0.382672 0.000000 0.923856
vn -0.555559 0.000000 0.831446
vn 0.555559 0.000000 0.831446
vn -0.980773 0.000000 0.195074
vn -0.923856 0.000000 -0.382672
vn -0.707083 0.000000 -0.707083
vn -0.294565 0.638295 -0.711173
vn -0.544298 0.638295 -0.544298
vn 0.000000 0.999969 0.000000
vn 0.000000 1.000000 0.000000
vn -0.555559 0.000000 -0.831446
vn -0.711173 0.638295 -0.294565
vn -0.769768 0.638295 0.000000
vn 0.294565 0.638295 -0.711173
vn 0.000000 0.638295 -0.769768
vn -0.685690 0.642872 0.341288
vn -0.577715 0.642872 0.502884
vn -0.544298 0.638295 0.544298
vn -0.711173 0.638295 0.294565
vn -0.294565 0.638295 0.711173
vn 0.000000 0.638295 0.769768
vn 0.294565 0.638295 0.711173
vn 0.544298 0.638295 0.544298
vn 0.015046 0.312876 -0.949644
vn 0.005402 0.112644 -0.993591
vn 0.009064 0.188788 -0.981964
vn 0.645070 0.630940 -0.431013
vn 0.544298 0.638295 -0.544298
vn 0.645070 0.630940 0.431013
vn 0.048097 0.998779 0.009552
vn 0.016022 0.999847 0.003174
vn -0.382672 0.000000 -0.923856
vn 0.000000 0.000000 0.999969
vn 0.923856 0.000000 0.382672
vn 0.000000 0.000000 -1.000000
vn -0.707083 0.000000 0.707083
vn 0.382672 0.000000 -0.923856
vn -0.923856 0.000000 0.382672
vn 0.923856 0.000000 -0.382672
vn 1.000000 0.000000 0.000000
vn 0.980773 0.000000 -0.195074
vn 0.980773 0.000000 0.195074
vn 0.760918 0.630940 0.151341
vn 0.769768 0.638295 0.000000
vn 0.760918 0.630940 -0.151341
vn 0.015046 0.312876 0.949644
vn 0.009064 0.188788 0.981964
vn 0.005402 0.112644 0.993591
vn 0.195074 0.000000 -0.980773
vn -0.195074 0.000000 -0.980773
vn -0.831446 0.000000 0.555559
vn -0.634297 0.646535 0.423811
usemtl 
s 1
f 92/1/1 91/2/1 133/3/1
f 92/1/1 133/3/1 130/4/1
f 2/5/2 97/6/2 5/7/3
f 2/5/2 5/7/3 4/8/3
f 4/8/3 5/7/3 7/9/4
f 4/8/3 7/9/4 6/10/4
f 86/11/5 85/12/6 34/13/7
f 86/11/5 34/13/7 35/14/8
f 9/15/9 10/16/9 12/17/10
f 9/15/9 12/17/10 11/18/10
f 11/18/10 12/17/10 14/19/11
f 11/18/10 14/19/11 13/20/11
f 13/20/11 14/19/11 16/6/12
f 13/20/11 16/6/12 15/5/12
f 15/5/12 16/6/12 18/7/13
f 15/5/12 18/7/13 17/8/13
f 17/8/13 18/7/13 20/9/14
f 17/8/13 20/9/14 19/10/14
f 94/21/15 93/22/15 123/23/15
f 94/21/15 123/23/15 122/24/15
f 21/18/16 124/17/16 24/19/1
f 21/18/16 24/19/1 23/20/1
f 23/20/1 24/19/1 26/6/17
f 23/20/1 26/6/17 25/5/17
f 25/5/17 26/6/17 28/7/18
f 25/5/17 28/7/18 27/8/18
f 30/9/19 129/7/20 45/25/20
f 30/9/19 45/25/20 46/26/19
f 1/27/21 3/28/22 90/29/22
f 1/27/21 90/29/22 88/30/22
f 27/8/18 28/7/18 131/9/23
f 27/8/18 131/9/23 29/10/23
f 33/31/22 134/32/22 48/33/22
f 33/31/22 48/33/22 49/34/22
f 128/6/24 127/19/25 43/35/25
f 128/6/24 43/35/25 44/36/24
f 98/6/26 100/19/27 31/35/27
f 98/6/26 31/35/27 32/36/26
f 22/17/28 121/16/29 41/37/30
f 22/17/28 41/37/30 42/38/31
f 120/7/32 119/6/33 39/36/33
f 120/7/32 39/36/33 40/25/32
f 118/19/34 117/17/35 37/38/35
f 118/19/34 37/38/35 38/35/34
f 108/39/36 80/40/37 103/41/38
f 108/39/36 103/41/38 107/42/36
f 104/9/39 102/7/40 136/25/40
f 104/9/39 136/25/40 106/26/39
f 100/19/27 30/17/19 46/38/19
f 100/19/27 46/38/19 31/35/27
f 129/7/20 128/6/24 44/36/24
f 129/7/20 44/36/24 45/25/20
f 127/19/25 22/17/28 42/38/31
f 127/19/25 42/38/31 43/35/25
f 121/9/29 120/7/32 40/25/32
f 121/9/29 40/25/32 41/26/30
f 119/6/33 118/19/34 38/35/34
f 119/6/33 38/35/34 39/36/33
f 117/17/35 114/16/41 110/37/41
f 117/17/35 110/37/41 37/38/35
f 87/43/42 86/11/5 35/14/8
f 87/43/42 35/14/8 36/44/43
f 102/7/40 98/6/26 32/36/26
f 102/7/40 32/36/26 136/25/40
f 54/45/44 153/46/18 169/47/18
f 54/45/44 169/47/18 70/48/44
f 146/49/22 145/50/22 61/51/22
f 146/49/22 61/51/22 62/52/22
f 140/53/22 139/54/22 55/55/22
f 140/53/22 55/55/22 56/56/22
f 34/13/7 33/31/22 49/34/22
f 34/13/7 49/34/22 50/57/22
f 135/58/22 146/49/22 62/52/22
f 135/58/22 62/52/22 47/59/22
f 141/60/22 140/53/22 56/56/22
f 141/60/22 56/56/22 57/61/22
f 35/14/8 34/13/7 50/57/22
f 35/14/8 50/57/22 51/62/21
f 142/63/22 141/60/22 57/61/22
f 142/63/22 57/61/22 58/64/22
f 36/44/43 35/14/8 51/62/21
f 36/44/43 51/62/21 52/65/22
f 143/66/22 142/63/22 58/64/22
f 143/66/22 58/64/22 59/67/22
f 137/68/22 36/44/43 52/65/22
f 137/68/22 52/65/22 53/69/22
f 144/70/22 143/66/22 59/67/22
f 144/70/22 59/67/22 60/71/22
f 138/72/22 137/68/22 53/69/22
f 138/72/22 53/69/22 154/73/22
f 134/32/22 135/58/22 47/59/22
f 134/32/22 47/59/22 48/33/22
f 145/50/22 144/70/22 60/71/22
f 145/50/22 60/71/22 61/51/22
f 139/54/22 138/72/22 154/73/22
f 139/54/22 154/73/22 55/55/22
f 64/74/22 63/75/22 78/76/22
f 64/74/22 78/76/22 77/77/22
f 64/74/22 77/77/22 65/78/22
f 77/77/22 76/79/22 65/78/22
f 76/79/22 66/80/22 65/78/22
f 76/79/22 75/81/22 66/80/22
f 75/81/22 67/82/22 66/80/22
f 75/81/22 74/83/22 67/82/22
f 74/83/22 68/84/22 67/82/22
f 74/83/22 69/85/22 68/84/22
f 74/83/22 73/86/22 69/85/22
f 73/86/22 170/87/22 69/85/22
f 73/86/22 72/88/22 170/87/22
f 72/88/22 71/89/21 170/87/22
f 147/90/13 148/91/45 164/92/45
f 147/90/13 164/92/45 163/93/13
f 161/94/10 160/95/46 176/96/46
f 161/94/10 176/96/46 177/97/10
f 155/98/47 54/45/44 70/48/44
f 155/98/47 70/48/44 171/99/47
f 149/100/48 147/90/13 163/93/13
f 149/100/48 163/93/13 165/101/48
f 162/102/11 161/94/10 177/97/10
f 162/102/11 177/97/10 178/103/11
f 156/104/49 155/98/47 171/99/47
f 156/104/49 171/99/47 172/105/49
f 150/106/50 149/100/48 165/101/48
f 150/106/50 165/101/48 166/107/50
f 148/91/45 162/102/11 178/103/11
f 148/91/45 178/103/11 164/92/45
f 157/108/3 156/104/49 172/105/49
f 157/108/3 172/105/49 173/109/3
f 151/110/1 150/106/50 166/107/50
f 151/110/1 166/107/50 167/111/1
f 158/112/51 157/108/3 173/109/3
f 158/112/51 173/109/3 174/113/51
f 152/114/17 151/115/1 167/116/1
f 152/114/17 167/116/1 168/117/17
f 159/118/52 158/112/51 174/113/51
f 159/118/52 174/113/51 175/119/52
f 153/46/18 152/114/17 168/117/17
f 153/46/18 168/117/17 169/47/18
f 160/95/46 159/120/52 175/121/52
f 160/95/46 175/121/52 176/96/46
f 79/122/53 179/40/53 82/123/52
f 79/122/53 82/123/52 81/124/52
f 81/124/52 82/123/52 84/125/54
f 81/124/52 84/125/54 83/126/54
f 183/125/55 182/123/56 186/127/56
f 183/125/55 186/127/56 112/128/55
f 182/123/56 180/40/57 109/39/57
f 182/123/56 109/39/57 186/127/56
f 111/129/58 115/130/59 184/125/60
f 111/129/58 184/125/60 113/128/58
f 80/40/37 181/122/47 105/131/47
f 80/40/37 105/131/47 103/41/38
f 115/130/59 116/132/12 185/126/12
f 115/130/59 185/126/12 184/125/60
f 8/133/47 189/30/47 187/29/61
f 8/133/47 187/29/61 89/134/61
f 193/2/62 191/1/62 189/30/47
f 193/2/62 189/30/47 8/133/47
f 99/135/52 101/136/52 190/134/52
f 99/135/52 190/134/52 188/29/52
f 132/137/22 1/27/21 88/30/22
f 132/137/22 88/30/22 192/1/21
f 196/22/63 194/21/63 96/138/63
f 196/22/63 96/138/63 95/139/63
f 197/138/64 195/21/64 121/140/29
f 197/138/64 121/140/29 22/141/28
f 125/142/23 126/143/23 199/139/23
f 125/142/23 199/139/23 198/138/23
