# Blender v2.63 (sub 0) OBJ File: 'bunker.blend'
# www.blender.org
mtllib bunker.mtl
o Cube_Cube.001
v -3.238509 -0.288234 0.911568
v -3.238509 -0.288234 -1.133316
v 10.685040 -0.288234 -1.133316
v 10.685040 -0.288234 0.911568
v -3.238509 9.295918 0.911568
v -3.238509 9.295918 -1.133316
v 10.685040 9.295918 -1.133316
v 10.685040 9.295918 0.911568
vn -1.000000 -0.000000 0.000000
vn 0.000000 0.000000 -1.000000
vn 1.000000 -0.000000 0.000000
vn 0.000000 0.000000 1.000000
vn -0.000000 -1.000000 0.000000
vn -0.000000 1.000000 0.000000
usemtl 
s off
f 2//1 1//1 5//1
f 2//1 5//1 6//1
f 6//2 7//2 3//2
f 6//2 3//2 2//2
f 7//3 8//3 4//3
f 7//3 4//3 3//3
f 1//4 4//4 8//4
f 1//4 8//4 5//4
f 1//5 2//5 3//5
f 1//5 3//5 4//5
f 8//6 7//6 6//6
f 8//6 6//6 5//6
o Sphere
v -4.450069 7.866528 0.010706
v -7.433295 6.697965 0.010706
v -9.995050 4.839049 0.010706
v -11.960754 2.416463 0.010706
v -13.196445 -0.404696 0.010706
v -4.021164 7.866528 -1.589990
v -6.604713 6.697965 -3.081603
v -8.823258 4.839049 -4.362481
v -10.525608 2.416464 -5.345332
v -11.595747 -0.404696 -5.963178
v -2.849373 7.866528 -2.761781
v -4.340986 6.697965 -5.345330
v -5.621863 4.839049 -7.563875
v -6.604715 2.416464 -9.266223
v -7.222561 -0.404696 -10.336364
v -1.248678 7.866528 -3.190686
v -1.248678 6.697965 -6.173912
v -1.248677 4.839049 -8.735665
v -1.248677 2.416464 -10.701368
v -1.248680 8.265102 0.010710
v 0.352018 7.866528 -2.761780
v 1.843631 6.697965 -5.345330
v 3.124508 4.839049 -7.563874
v 4.107360 2.416464 -9.266222
v 1.523808 7.866528 -1.589990
v 4.107358 6.697965 -3.081603
v 6.325902 4.839049 -4.362480
v 8.028252 2.416464 -5.345331
v 9.098392 -0.404696 -5.963177
v 1.952713 7.866528 0.010706
v 4.935939 6.697965 0.010706
v 7.497694 4.839049 0.010706
v 9.463396 2.416464 0.010706
v 10.699089 -0.404696 0.010706
v 1.523808 7.866528 1.611401
v 4.107358 6.697965 3.103014
v 6.325902 4.839049 4.383891
v 8.028250 2.416464 5.366744
v 9.098391 -0.404696 5.984590
v 0.352018 7.866528 2.783191
v 1.843630 6.697965 5.366741
v 3.124508 4.839049 7.585285
v 4.107358 2.416464 9.287635
v 4.725204 -0.404696 10.357776
v -1.248678 7.866528 3.212096
v -1.248679 6.697965 6.195323
v -1.248678 4.839049 8.757077
v -1.248680 2.416464 10.722780
v -1.248679 -0.404696 11.958472
v -2.849373 7.866528 2.783191
v -4.340987 6.697965 5.366741
v -5.621863 4.839049 7.585285
v -6.604716 2.416464 9.287634
v -7.222562 -0.404696 10.357775
v -4.021164 7.866528 1.611401
v -6.604713 6.697965 3.103013
v -8.823257 4.839049 4.383891
v -10.525608 2.416464 5.366741
v -11.595747 -0.404696 5.984587
vn -0.744530 0.510727 -0.429853
vn -0.793237 0.401196 -0.457991
vn -0.915983 0.401196 0.000000
vn -0.859737 0.510727 0.000000
vn -0.495773 0.868435 0.000000
vn -0.265297 0.964141 0.000000
vn -0.229743 0.964141 -0.132633
vn -0.429365 0.868435 -0.247871
vn -0.605213 0.715262 -0.349406
vn -0.698813 0.715262 0.000000
vn -0.495132 0.547410 -0.674612
vn -0.651204 0.389630 -0.651204
vn -0.132633 0.964141 -0.229743
vn -0.247871 0.868435 -0.429365
vn -0.349406 0.715262 -0.605213
vn 0.000000 0.964141 -0.265297
vn 0.000000 0.868435 -0.495773
vn 0.000000 0.715262 -0.698813
vn 0.000000 0.630055 -0.776513
vn 0.349406 0.715262 -0.605213
vn 0.388256 0.630055 -0.672475
vn 0.132633 0.964141 -0.229743
vn 0.247871 0.868435 -0.429365
vn 0.605213 0.715262 -0.349406
vn 0.766106 0.547410 -0.336650
vn 0.229743 0.964141 -0.132633
vn 0.429365 0.868435 -0.247871
vn 0.698813 0.715262 0.000000
vn 0.859737 0.510727 0.000000
vn 0.915983 0.401196 0.000000
vn 0.889553 0.389630 -0.238350
vn 0.265297 0.964141 0.000000
vn 0.495773 0.868435 0.000000
vn 0.429365 0.868435 0.247871
vn 0.605213 0.715262 0.349406
vn 0.744530 0.510727 0.429853
vn 0.793237 0.401196 0.457991
vn 0.229743 0.964141 0.132633
vn 0.247871 0.868435 0.429365
vn 0.349406 0.715262 0.605213
vn 0.429853 0.510727 0.744530
vn 0.457991 0.401196 0.793237
vn 0.132633 0.964141 0.229743
vn 0.000000 0.868435 0.495773
vn 0.000000 0.715262 0.698813
vn 0.000000 0.510727 0.859737
vn 0.000000 0.401196 0.915983
vn 0.000000 0.964141 0.265297
vn -0.132633 0.964141 0.229743
vn -0.247871 0.868435 0.429365
vn -0.349406 0.715262 0.605213
vn -0.429853 0.510727 0.744530
vn -0.457991 0.401196 0.793237
vn -0.229743 0.964141 0.132633
vn -0.429365 0.868435 0.247871
vn -0.605213 0.715262 0.349406
vn -0.744530 0.510727 0.429853
vn -0.793237 0.401196 0.457991
usemtl 
s 1
f 17//7 18//8 13//9
f 17//7 13//9 12//10
f 10//11 9//12 14//13
f 10//11 14//13 15//14
f 15//14 16//15 11//16
f 15//14 11//16 10//11
f 16//15 17//7 12//10
f 16//15 12//10 11//16
f 22//17 23//18 18//8
f 22//17 18//8 17//7
f 19//19 20//20 15//14
f 19//19 15//14 14//13
f 20//20 21//21 16//15
f 20//20 16//15 15//14
f 21//21 22//17 17//7
f 21//21 17//7 16//15
f 24//22 25//23 20//20
f 24//22 20//20 19//19
f 25//23 26//24 21//21
f 25//23 21//21 20//20
f 26//24 27//25 22//17
f 26//24 22//17 21//21
f 31//26 32//27 27//25
f 31//26 27//25 26//24
f 29//28 30//29 25//23
f 29//28 25//23 24//22
f 30//29 31//26 26//24
f 30//29 26//24 25//23
f 35//30 36//31 32//27
f 35//30 32//27 31//26
f 33//32 34//33 30//29
f 33//32 30//29 29//28
f 34//33 35//30 31//26
f 34//33 31//26 30//29
f 40//34 41//35 36//31
f 40//34 36//31 35//30
f 41//35 42//36 37//37
f 41//35 37//37 36//31
f 38//38 39//39 34//33
f 38//38 34//33 33//32
f 39//39 40//34 35//30
f 39//39 35//30 34//33
f 44//40 45//41 40//34
f 44//40 40//34 39//39
f 45//41 46//42 41//35
f 45//41 41//35 40//34
f 46//42 47//43 42//36
f 46//42 42//36 41//35
f 43//44 44//40 39//39
f 43//44 39//39 38//38
f 49//45 50//46 45//41
f 49//45 45//41 44//40
f 50//46 51//47 46//42
f 50//46 46//42 45//41
f 51//47 52//48 47//43
f 51//47 47//43 46//42
f 48//49 49//45 44//40
f 48//49 44//40 43//44
f 54//50 55//51 50//46
f 54//50 50//46 49//45
f 55//51 56//52 51//47
f 55//51 51//47 50//46
f 56//52 57//53 52//48
f 56//52 52//48 51//47
f 53//54 54//50 49//45
f 53//54 49//45 48//49
f 58//55 59//56 54//50
f 58//55 54//50 53//54
f 59//56 60//57 55//51
f 59//56 55//51 54//50
f 60//57 61//58 56//52
f 60//57 56//52 55//51
f 61//58 62//59 57//53
f 61//58 57//53 56//52
f 63//60 64//61 59//56
f 63//60 59//56 58//55
f 64//61 65//62 60//57
f 64//61 60//57 59//56
f 65//62 66//63 61//58
f 65//62 61//58 60//57
f 66//63 67//64 62//59
f 66//63 62//59 61//58
f 14//13 9//12 28//6
f 28//6 19//19 14//13
f 28//6 24//22 19//19
f 28//6 29//28 24//22
f 28//6 33//32 29//28
f 28//6 38//38 33//32
f 28//6 43//44 38//38
f 28//6 48//49 43//44
f 28//6 53//54 48//49
f 28//6 58//55 53//54
f 28//6 63//60 58//55
f 9//12 10//11 64//61
f 9//12 64//61 63//60
f 10//11 11//16 65//62
f 10//11 65//62 64//61
f 11//16 12//10 66//63
f 11//16 66//63 65//62
f 12//10 13//9 67//64
f 12//10 67//64 66//63
f 28//6 9//12 63//60
o Cylinder
v -3.591487 -0.796225 -16.860415
v -1.368298 3.318587 -15.753836
v 14.804125 -0.945665 -6.441700
v 12.322891 3.318587 -7.849224
v 14.701523 -0.764333 6.659892
v 12.322889 3.318587 7.959999
v -3.548703 -0.919593 17.435528
v -1.368299 3.318587 15.864609
v -15.059486 -0.834586 10.833599
v -15.059486 3.318587 7.959997
v -15.059486 -0.834586 -10.257178
v -15.059486 3.318587 -7.849223
v 10.448835 -0.838449 9.034644
v 10.440019 2.182911 9.047074
v 0.583545 -0.878880 14.769967
v 0.514572 2.182911 14.777534
v 11.779188 -0.827937 11.366584
v 11.779188 -0.184905 11.366584
v 1.853741 -0.827937 17.097044
v 1.853741 -0.184905 17.097044
v 0.351792 -0.833585 -14.679077
v 0.471340 2.156749 -14.691721
v 10.528321 -0.899449 -8.908717
v 10.483253 2.156749 -8.911340
v 1.625996 -0.880329 -16.691641
v 1.625996 0.234024 -16.691641
v 11.637909 -0.880329 -10.911262
v 11.637909 0.234024 -10.911262
v -15.059486 -0.834586 5.694054
v -15.059486 2.181264 5.600724
v -15.059486 -0.834586 -5.442820
v -15.059486 2.181264 -5.489950
v -17.648933 -0.732319 5.600724
v -17.648933 0.258540 5.600724
v -17.648933 -0.732319 -5.489950
v -17.648933 0.258540 -5.489950
v -3.914107 -30.802238 -16.758116
v 14.481504 -30.951675 -6.339399
v 14.378901 -30.770344 6.762193
v -3.871324 -30.925602 17.537827
v -15.382108 -30.840599 10.935900
v -15.382108 -30.840599 -10.154877
v 10.126214 -30.844463 9.136946
v 0.260924 -30.884888 14.872269
v 11.456567 -30.833950 11.468884
v 1.531120 -30.833950 17.199345
v 0.029172 -30.839596 -14.576776
v 10.205700 -30.905460 -8.806416
v 1.303375 -30.886341 -16.589340
v 11.315289 -30.886341 -10.808961
v -15.382108 -30.840599 5.796355
v -15.382108 -30.840599 -5.340518
v -17.971554 -30.738331 5.703025
v -17.971554 -30.738331 -5.387649
vn 0.485020 -0.025338 -0.874136
vn 0.864199 0.503150 -0.000089
vn -0.428613 0.507338 0.747595
vn -0.446855 0.449054 -0.773738
vn 0.868132 0.003772 -0.496319
vn 0.500000 0.000000 0.866025
vn 0.532659 0.027091 0.845896
vn 0.490803 0.003970 0.871261
vn -0.497458 0.008306 0.867449
vn 0.331171 0.749202 0.573604
vn -0.875448 -0.017285 0.483003
vn 0.319925 0.768499 -0.554127
vn 0.499093 0.005317 -0.866532
vn 0.500000 0.000000 -0.866025
vn -0.850175 0.023141 -0.525991
vn 0.872314 0.009734 0.488849
vn -0.844800 0.007259 -0.535032
vn -0.026193 0.023279 0.999386
vn -0.596151 0.802872 0.000000
vn 0.013233 -0.011761 -0.999843
vn 0.874706 -0.007753 0.484591
vn 0.999911 -0.010724 0.007979
vn -0.035869 0.003793 0.999349
vn 0.868562 -0.011028 -0.495458
vn 0.499983 -0.008328 -0.865995
vn -0.003193 -0.999930 -0.011353
vn -0.002131 -0.999968 -0.007655
vn -0.002535 -0.999997 0.000000
vn -0.004108 -0.999924 -0.011613
vn -0.003257 -0.999899 0.013814
vn 0.002361 -0.999997 0.000000
vn -0.002691 -0.999348 -0.036010
vn -0.000738 -0.999965 -0.008318
vn 0.000728 -0.999900 -0.014144
vn -0.039463 -0.999221 0.000000
vn 0.007317 -0.999932 0.009105
vn -0.999942 0.010751 0.000000
vn -0.005374 -0.999979 0.003690
vn 0.487577 -0.002266 0.873077
vn -0.877804 0.011071 0.478892
vn 0.018055 -0.003603 -0.999831
vn 0.483977 -0.008187 -0.875042
vn 0.499999 -0.002423 0.866023
vn 0.499669 -0.008325 -0.866176
vn 0.542087 -0.002964 0.840317
vn -0.498995 0.002411 -0.866602
usemtl 
s off
f 68//65 69//65 89//65
f 68//65 89//65 88//65
f 70//66 71//66 73//66
f 70//66 73//66 72//66
f 74//67 75//67 77//67
f 74//67 77//67 76//67
f 71//6 69//6 79//6
f 71//6 79//6 73//6
f 79//6 77//6 73//6
f 77//6 75//6 73//6
f 69//68 68//68 78//68
f 69//68 78//68 79//68
f 85//69 84//69 80//69
f 85//69 80//69 81//69
f 83//70 81//70 73//70
f 83//70 73//70 75//70
f 75//71 74//71 82//71
f 75//71 82//71 83//71
f 81//72 80//72 72//72
f 81//72 72//72 73//72
f 84//70 85//70 87//70
f 84//70 87//70 86//70
f 74//73 76//73 108//73
f 74//73 108//73 107//73
f 87//74 85//74 81//74
f 87//74 81//74 83//74
f 83//75 82//75 86//75
f 83//75 86//75 87//75
f 95//76 93//76 89//76
f 95//76 89//76 91//76
f 71//77 70//77 90//77
f 71//77 90//77 91//77
f 91//78 89//78 69//78
f 91//78 69//78 71//78
f 92//78 93//78 95//78
f 92//78 95//78 94//78
f 88//79 89//79 93//79
f 88//79 93//79 92//79
f 91//80 90//80 94//80
f 91//80 94//80 95//80
f 116//81 114//81 88//81
f 116//81 88//81 92//81
f 101//82 100//82 96//82
f 101//82 96//82 97//82
f 99//1 97//1 77//1
f 99//1 77//1 79//1
f 79//1 78//1 98//1
f 79//1 98//1 99//1
f 97//1 96//1 76//1
f 97//1 76//1 77//1
f 100//1 101//1 103//1
f 100//1 103//1 102//1
f 103//83 101//83 97//83
f 103//83 97//83 99//83
f 99//84 98//84 102//84
f 99//84 102//84 103//84
f 115//85 117//85 94//85
f 115//85 94//85 90//85
f 70//86 72//86 106//86
f 70//86 106//86 105//86
f 120//87 118//87 96//87
f 120//87 96//87 100//87
f 112//88 110//88 80//88
f 112//88 80//88 84//88
f 92//89 94//89 117//89
f 92//89 117//89 116//89
f 104//90 114//90 109//90
f 114//91 115//91 109//91
f 115//92 119//92 109//92
f 115//93 105//93 119//93
f 105//94 106//94 119//94
f 106//95 118//95 119//95
f 106//95 108//95 118//95
f 106//96 110//96 108//96
f 110//97 111//97 108//97
f 111//98 107//98 108//98
f 120//99 121//99 119//99
f 120//99 119//99 118//99
f 112//100 113//100 111//100
f 112//100 111//100 110//100
f 76//101 96//101 118//101
f 76//101 118//101 108//101
f 116//102 117//102 115//102
f 116//102 115//102 114//102
f 72//103 80//103 110//103
f 72//103 110//103 106//103
f 86//104 82//104 111//104
f 86//104 111//104 113//104
f 102//105 98//105 119//105
f 102//105 119//105 121//105
f 68//106 88//106 114//106
f 68//106 114//106 104//106
f 84//107 86//107 113//107
f 84//107 113//107 112//107
f 100//101 102//101 121//101
f 100//101 121//101 120//101
f 105//108 115//108 90//108
f 105//108 90//108 70//108
f 82//109 74//109 107//109
f 82//109 107//109 111//109
f 98//101 78//101 109//101
f 98//101 109//101 119//101
f 78//110 68//110 104//110
f 78//110 104//110 109//110
