# Blender v2.58 (sub 1) OBJ File: 'cityscape.blend'
# www.blender.org
v 0.030282 0.082764 5.202598
v -1.165814 0.082436 5.197636
v -1.165986 0.717042 5.197321
v 0.029961 0.081887 3.430984
v -1.166306 0.716166 3.425708
v -1.166134 0.081560 3.426022
v -2.623423 0.077311 -4.367457
v -2.623595 0.711917 -4.367772
v -3.752403 0.077005 -4.367254
v -2.623170 0.078002 -2.970375
v -3.752152 0.077696 -2.970171
v -2.623343 0.712608 -2.970688
v 2.447060 0.082539 3.423556
v 2.443654 0.082121 3.867720
v 1.225268 0.082211 3.431158
v 3.888030 1.772719 5.197832
v 3.291979 1.768749 3.865739
v 3.887710 1.771842 3.426218
v 3.291896 1.768523 3.408154
v 2.441549 1.769812 5.193343
v 2.437822 1.768518 3.865892
v 3.893862 0.086322 5.199658
v 2.447381 0.083415 5.195170
v 3.893542 0.085446 3.428045
v 3.297812 0.082353 3.867565
v 3.297729 0.082126 3.409981
v 3.893250 0.084647 1.814297
v 3.297442 0.081342 1.823688
v 1.225589 0.083088 5.202773
v 2.446769 0.081741 1.809808
v -2.644189 2.992673 -1.386970
v -2.643895 2.993481 0.244319
v -3.773168 2.982206 -1.386761
v -3.772874 2.983012 0.244527
v -2.622761 0.714198 0.245442
v -2.623056 0.713391 -1.385847
v -3.752035 0.702924 -1.385638
v -3.751740 0.703731 0.245651
v -2.622589 0.079592 0.245755
v -3.751571 0.079286 0.245960
v -2.622884 0.078786 -1.385533
v -3.751866 0.078480 -1.385329
v -3.751866 0.078480 -1.385329
v -2.622307 0.080364 1.806881
v -3.751290 0.080058 1.807085
v -3.751571 0.079286 0.245960
v -2.622016 0.081163 3.420628
v -3.750998 0.080857 3.420832
v -2.621696 0.082039 5.192243
v -3.750677 0.081733 5.192447
v -1.674667 0.716904 5.197413
v -1.674987 0.716028 3.425800
v -2.621868 0.716645 5.191928
v -2.622188 0.715768 3.420315
v -1.675279 0.715230 1.812053
v -2.622479 0.714971 1.806566
v -1.675561 0.714458 0.250927
v -1.675856 0.713651 -1.380361
v -1.675944 0.713408 -1.871502
v -1.676394 0.712177 -4.362286
v -1.674815 0.081422 3.426114
v -1.674495 0.082299 5.197728
v -1.675107 0.080624 1.812366
v -1.675389 0.079852 0.251241
v -1.675684 0.079045 -1.380047
v -1.675772 0.078802 -1.871187
v -1.676221 0.077571 -4.361972
v -1.167090 0.078940 -1.871279
v -1.167541 0.077709 -4.362064
v -1.167002 0.079183 -1.380139
v -1.166708 0.079990 0.251149
v -1.166426 0.080762 1.812274
v -1.167090 0.078940 -1.871279
v -1.167541 0.077709 -4.362064
v -1.167002 0.079183 -1.380139
v -1.166708 0.079990 0.251149
v -1.166426 0.080762 1.812274
v -1.166134 0.081560 3.426022
v -1.165814 0.082436 5.197636
v 2.443537 1.273665 -2.803996
v 2.443255 1.272893 -4.365121
v 3.889737 1.275799 -4.360632
v 3.890019 1.276571 -2.799506
v 2.445935 0.079459 -2.803405
v 3.892416 0.082365 -2.798916
v 3.892134 0.081593 -4.360042
v 2.445653 0.078687 -4.364531
v 1.223876 2.009665 -1.375958
v 1.223620 2.008963 -2.796757
v 2.445669 2.009993 -1.383560
v 2.445412 2.009290 -2.804359
v 1.224400 0.079834 -1.375004
v 2.446192 0.080162 -1.382606
v 1.224143 0.079132 -2.795802
v -1.167562 4.271710 1.810202
v -1.167844 4.270939 0.249076
v 0.028252 4.271266 0.254039
v 0.028534 4.272037 1.815164
v -1.167325 2.356333 0.250023
v -1.167043 2.357105 1.811148
v 0.029053 2.357432 1.816110
v 0.028772 2.356660 0.254985
v -1.167619 2.355526 -1.381265
v 0.028477 2.355853 -1.376303
v 0.029670 0.081089 1.817236
v 0.029389 0.080317 0.256111
v 0.029094 0.079510 -1.375178
v -0.376029 8.549850 -2.905673
v -0.376103 8.549645 -3.319423
v -0.049213 8.549734 -3.318622
v -0.049138 8.549939 -2.904871
v -0.599992 7.213710 -3.603085
v -0.599815 7.214195 -2.621789
v 0.175297 7.213921 -3.601185
v 0.175475 7.214406 -2.619889
v -0.599126 4.675107 -2.620534
v 0.176163 4.675318 -2.618634
v 0.175986 4.674833 -3.599929
v -0.599304 4.674622 -3.601828
v -0.885646 4.555490 -4.005332
v -0.885327 4.556367 -2.231053
v 0.516155 4.555871 -4.001898
v 0.516475 4.556749 -2.227617
v -0.884501 1.513421 -2.229547
v 0.517300 1.513804 -2.226112
v 0.516979 1.512926 -4.000393
v -0.884822 1.512544 -4.003828
v -1.167930 1.515349 -4.362774
v -1.167480 1.516582 -1.871991
v 0.799957 1.515885 -4.357952
v 0.800407 1.517117 -1.867169
v 0.800797 0.079477 -1.866457
v 0.800347 0.078245 -4.357241
v 1.223861 0.078360 -4.356928
v 3.892673 0.083069 -1.378117
v 1.699818 3.855800 2.798043
v 1.699754 3.855624 2.440874
v 1.970236 3.855872 2.796360
v 1.970171 3.855695 2.439191
v 2.446132 2.430431 1.808647
v 1.224340 2.430104 1.816249
v 1.224632 2.430902 3.429996
v 2.446424 2.431229 3.422394
v 1.224710 1.063191 1.816925
v 1.225002 1.063989 3.430672
v 2.446794 1.064316 3.423070
v 2.446503 1.063518 1.809323
v 1.224428 1.062419 0.255799
v 2.446220 1.062746 0.248197
v 1.224977 0.081413 1.817411
v 2.446339 0.080564 -0.570009
v 1.224547 0.080236 -0.562407
v 3.892968 0.083875 0.253172
vn -0.004149 0.000495 0.999991
vn 0.004149 -0.000493 -0.999991
vn -0.000180 -0.000495 -1.000000
vn 0.000181 0.000494 1.000000
vn -0.000262 1.000000 0.000938
vn -0.005556 0.999984 -0.000493
vn -0.005557 0.999984 -0.000494
vn -0.002003 0.999996 -0.002083
vn -0.000271 0.999999 -0.000974
vn -0.003105 0.001072 0.999995
vn -0.003105 0.001073 0.999995
vn 0.999994 0.003458 -0.000182
vn -0.000181 -0.001083 -0.999999
vn -0.000179 -0.001084 -0.999999
vn -0.999994 -0.003459 0.000183
vn -0.999990 -0.003455 0.002811
vn 0.030310 -0.000978 -0.999540
vn 0.030309 -0.000978 -0.999540
vn -0.000274 0.999999 -0.000974
vn 0.000251 1.000000 -0.000495
vn 0.000477 1.000000 -0.000495
vn 0.000477 1.000000 -0.000494
vn -0.000271 1.000000 0.000938
vn -0.009271 0.999957 -0.000493
vn -0.009272 0.999957 -0.000493
vn 0.999957 0.009272 -0.000185
vn 0.999957 0.009271 -0.000185
vn -0.999957 -0.009271 0.000185
vn -0.999957 -0.009272 0.000185
vn 0.000180 0.000495 1.000000
vn 0.000181 0.000495 1.000000
vn 0.000180 0.000494 1.000000
vn -0.000180 -0.000494 -1.000000
vn -0.000181 -0.000495 -1.000000
vn -0.490236 0.871590 -0.000343
vn -0.490236 0.871590 -0.000342
vn -0.000271 1.000000 -0.000494
vn -0.000271 1.000000 -0.000495
vn 0.468444 0.883493 -0.000522
vn -0.000270 1.000000 -0.000494
vn -0.000181 -0.000494 -1.000000
vn 0.000181 0.000496 1.000000
vn 1.000000 0.000271 -0.000181
vn 1.000000 0.000271 -0.000180
vn -1.000000 -0.000271 0.000181
vn -0.005791 0.000494 0.999983
vn -1.000000 -0.000271 0.000180
vn 0.005791 -0.000494 -0.999983
vn 0.000000 0.000000 0.000000
vn -0.002007 0.999998 -0.000494
vn -0.003104 0.000489 0.999995
vn -0.003104 0.000488 0.999995
vn 0.999998 0.002008 -0.000182
vn 0.003105 -0.000488 -0.999995
vn 0.003104 -0.000488 -0.999995
vn -0.999998 -0.002008 0.000182
vn 0.006222 0.000496 0.999981
vn -0.006222 -0.000496 -0.999981
vn -0.006222 -0.000497 -0.999981
vn -0.004149 0.000493 0.999991
vn 0.004148 -0.000494 -0.999991
vn -0.000270 1.000000 -0.000493
vn -0.000273 1.000000 -0.000496
vn -0.986249 0.165264 0.000097
vn -0.986249 0.165265 0.000097
vn 0.002341 0.207325 -0.978269
vn 0.986160 0.165799 -0.000260
vn -0.002458 0.208292 0.978064
vn -0.002454 0.208291 0.978064
vn -0.002451 0.000494 0.999997
vn 0.002451 -0.000494 -0.999997
vn 0.002450 -0.000494 -0.999997
vn -0.383663 0.923473 -0.000387
vn 0.000434 0.958989 -0.283443
vn 0.329554 0.944137 -0.000527
vn -0.000973 0.956734 0.290963
vn -0.000974 0.956735 0.290960
vn -0.002450 0.000494 0.999997
vn 0.010536 0.999944 -0.000497
vn 0.010540 0.999944 -0.000496
vn -0.000292 0.999968 0.008046
vn -0.000292 0.999968 0.008044
vn -0.011077 0.999939 -0.000492
vn -0.011081 0.999939 -0.000493
vn -0.000251 0.999959 -0.009036
vn -0.000250 0.999959 -0.009032
vn -0.002008 0.999998 -0.000495
vn -0.000272 1.000000 -0.000492
vn -0.000268 1.000000 -0.000495
vn -0.005803 0.402952 -0.915203
vn -0.005803 0.402953 -0.915202
vn 0.005584 0.403861 0.914804
vn 0.005583 0.403860 0.914804
vn 0.948465 0.316881 -0.000329
vn 0.948465 0.316881 -0.000328
vn -0.948637 0.316366 0.000016
vn -0.948637 0.316366 0.000015
vn 0.006222 0.000497 0.999981
vn -0.004952 0.640047 -0.768320
vn -0.002008 0.999998 -0.000494
usemtl (null)
s off
f 1//1 3//1 2//1
f 4//2 6//2 5//2
f 7//3 9//3 8//3
f 10//4 12//4 11//4
f 13//5 15//5 14//5
f 16//6 18//6 17//6
f 17//7 18//7 19//7
f 16//8 17//8 20//8
f 20//9 17//9 21//9
f 22//10 16//10 23//10
f 23//11 16//11 20//11
f 24//12 16//12 22//12
f 24//12 18//12 16//12
f 14//13 17//13 25//13
f 14//14 21//14 17//14
f 25//15 17//15 26//15
f 26//15 17//15 19//15
f 23//16 20//16 14//16
f 14//16 20//16 21//16
f 26//17 19//17 24//17
f 24//18 19//18 18//18
f 24//7 27//7 26//7
f 26//6 27//6 28//6
f 23//19 14//19 29//19
f 29//20 14//20 15//20
f 13//21 28//21 30//21
f 13//22 26//22 28//22
f 13//21 25//21 26//21
f 13//23 14//23 25//23
f 31//24 33//24 32//24
f 32//25 33//25 34//25
f 35//26 31//26 32//26
f 35//27 36//27 31//27
f 37//28 38//28 33//28
f 33//29 38//29 34//29
f 36//3 37//3 31//3
f 31//3 37//3 33//3
f 38//30 32//30 34//30
f 38//30 35//30 32//30
f 39//31 38//31 40//31
f 39//32 35//32 38//32
f 41//33 37//33 36//33
f 41//34 42//34 37//34
f 12//35 9//35 11//35
f 12//36 8//36 9//36
f 41//37 10//37 43//37
f 43//37 10//37 11//37
f 44//37 46//37 45//37
f 44//37 39//37 46//37
f 47//38 45//38 48//38
f 47//38 44//38 45//38
f 49//37 47//37 50//37
f 50//37 47//37 48//37
f 1//39 4//39 3//39
f 3//39 4//39 5//39
f 3//37 52//37 51//37
f 3//37 5//37 52//37
f 51//37 52//37 53//37
f 53//38 52//38 54//38
f 52//38 55//38 54//38
f 54//40 55//40 56//40
f 55//40 57//40 56//40
f 56//38 57//38 35//38
f 57//37 58//37 35//37
f 35//38 58//38 36//38
f 58//38 59//38 36//38
f 36//37 59//37 12//37
f 59//37 60//37 12//37
f 12//38 60//38 8//38
f 6//41 52//41 5//41
f 6//41 61//41 52//41
f 62//42 3//42 51//42
f 62//42 2//42 3//42
f 61//43 55//43 52//43
f 61//43 63//43 55//43
f 63//43 57//43 55//43
f 63//43 64//43 57//43
f 64//43 58//43 57//43
f 64//43 65//43 58//43
f 65//43 59//43 58//43
f 65//43 66//43 59//43
f 66//44 60//44 59//44
f 66//44 67//44 60//44
f 47//45 53//45 54//45
f 47//45 49//45 53//45
f 49//46 51//46 53//46
f 49//46 62//46 51//46
f 44//47 54//47 56//47
f 44//47 47//47 54//47
f 39//45 56//45 35//45
f 39//45 44//45 56//45
f 10//45 36//45 12//45
f 10//45 41//45 36//45
f 67//48 8//48 60//48
f 67//48 7//48 8//48
f 68//37 67//37 66//37
f 68//37 69//37 67//37
f 70//38 66//38 65//38
f 70//38 68//38 66//38
f 71//37 65//37 64//37
f 71//37 70//37 65//37
f 72//37 64//37 63//37
f 72//37 71//37 64//37
f 6//38 63//38 61//38
f 6//38 72//38 63//38
f 73//49 69//49 68//49
f 73//49 74//49 69//49
f 75//49 68//49 70//49
f 75//49 73//49 68//49
f 76//49 70//49 71//49
f 76//49 75//49 70//49
f 77//49 71//49 72//49
f 77//49 76//49 71//49
f 78//49 72//49 6//49
f 78//49 77//49 72//49
f 79//49 6//49 2//49
f 79//49 78//49 6//49
f 80//50 82//50 81//50
f 80//50 83//50 82//50
f 84//51 83//51 80//51
f 84//52 85//52 83//52
f 85//53 82//53 83//53
f 85//53 86//53 82//53
f 86//54 81//54 82//54
f 86//55 87//55 81//55
f 87//56 80//56 81//56
f 87//56 84//56 80//56
f 88//37 90//37 89//37
f 89//37 90//37 91//37
f 92//57 90//57 88//57
f 92//57 93//57 90//57
f 93//43 91//43 90//43
f 93//43 84//43 91//43
f 84//58 89//58 91//58
f 84//59 94//59 89//59
f 94//45 88//45 89//45
f 94//45 92//45 88//45
f 95//37 97//37 96//37
f 95//37 98//37 97//37
f 99//45 95//45 96//45
f 99//45 100//45 95//45
f 101//44 97//44 98//44
f 101//44 102//44 97//44
f 100//60 98//60 95//60
f 100//60 101//60 98//60
f 102//2 96//2 97//2
f 102//2 99//2 96//2
f 99//38 104//38 103//38
f 99//37 102//37 104//37
f 77//60 101//60 100//60
f 77//60 105//60 101//60
f 105//44 102//44 101//44
f 105//44 106//44 102//44
f 76//45 100//45 99//45
f 76//45 77//45 100//45
f 106//43 104//43 102//43
f 106//43 107//43 104//43
f 107//2 103//2 104//2
f 107//61 75//61 103//61
f 75//47 99//47 103//47
f 75//47 76//47 99//47
f 108//62 110//62 109//62
f 108//63 111//63 110//63
f 112//64 113//64 109//64
f 109//65 113//65 108//65
f 114//66 109//66 110//66
f 114//66 112//66 109//66
f 115//67 114//67 111//67
f 111//67 114//67 110//67
f 113//68 111//68 108//68
f 113//69 115//69 111//69
f 116//70 115//70 113//70
f 116//70 117//70 115//70
f 117//43 114//43 115//43
f 117//43 118//43 114//43
f 118//71 112//71 114//71
f 118//72 119//72 112//72
f 119//45 113//45 112//45
f 119//45 116//45 113//45
f 120//73 121//73 119//73
f 119//73 121//73 116//73
f 122//74 120//74 118//74
f 118//74 120//74 119//74
f 123//75 118//75 117//75
f 123//75 122//75 118//75
f 121//76 117//76 116//76
f 121//77 123//77 117//77
f 124//70 123//70 121//70
f 124//78 125//78 123//78
f 125//43 122//43 123//43
f 125//43 126//43 122//43
f 126//72 120//72 122//72
f 126//72 127//72 120//72
f 127//47 121//47 120//47
f 127//45 124//45 121//45
f 128//79 129//79 127//79
f 127//80 129//80 124//80
f 130//81 127//81 126//81
f 130//82 128//82 127//82
f 131//83 130//83 125//83
f 125//84 130//84 126//84
f 129//85 125//85 124//85
f 129//86 131//86 125//86
f 73//70 131//70 129//70
f 73//70 132//70 131//70
f 132//43 130//43 131//43
f 132//43 133//43 130//43
f 133//71 128//71 130//71
f 133//71 74//71 128//71
f 74//45 129//45 128//45
f 74//45 73//45 129//45
f 132//37 94//37 133//37
f 133//37 94//37 134//37
f 94//37 84//37 134//37
f 134//37 84//37 87//37
f 75//38 107//38 73//38
f 73//38 107//38 132//38
f 107//38 92//38 132//38
f 132//37 92//37 94//37
f 93//50 85//50 84//50
f 93//87 135//87 85//87
f 136//88 138//88 137//88
f 137//89 138//89 139//89
f 140//90 141//90 139//90
f 139//91 141//91 137//91
f 142//92 143//92 136//92
f 136//93 143//93 138//93
f 143//94 139//94 138//94
f 143//95 140//95 139//95
f 141//96 136//96 137//96
f 141//97 142//97 136//97
f 144//45 142//45 141//45
f 144//45 145//45 142//45
f 146//43 140//43 143//43
f 146//43 147//43 140//43
f 145//57 143//57 142//57
f 145//57 146//57 143//57
f 147//58 141//58 140//58
f 147//58 144//58 141//58
f 144//37 147//37 148//37
f 148//37 147//37 149//37
f 15//98 146//98 145//98
f 15//57 13//57 146//57
f 13//43 147//43 146//43
f 13//43 30//43 147//43
f 150//45 145//45 144//45
f 150//45 15//45 145//45
f 30//43 149//43 147//43
f 30//43 151//43 149//43
f 151//99 152//99 149//99
f 149//99 152//99 148//99
f 152//45 150//45 148//45
f 148//45 150//45 144//45
f 106//37 152//37 107//37
f 107//37 152//37 92//37
f 152//37 151//37 92//37
f 92//37 151//37 93//37
f 151//100 135//100 93//100
f 151//100 153//100 135//100
f 105//37 150//37 106//37
f 106//38 150//38 152//38
f 30//100 153//100 151//100
f 30//100 27//100 153//100
f 78//38 105//38 77//38
f 78//38 4//38 105//38
f 4//38 150//38 105//38
f 4//38 15//38 150//38
f 1//37 15//37 4//37
f 1//37 29//37 15//37
f 40//45 37//45 42//45
f 40//45 38//45 37//45
