# Blender v2.63 (sub 0) OBJ File: 'depot.blend'
# www.blender.org
mtllib depot.mtl
o Cube
v -12.857166 18.203537 10.964013
v -12.857166 18.203537 -14.750319
v 12.857169 18.203537 -14.750317
v 12.857161 18.203537 10.964016
v -21.287251 1.168694 19.394083
v -21.287230 1.168694 -23.180407
v 21.287245 1.168694 -23.180387
v 21.287237 1.168694 19.394091
v -3.787628 11.219080 14.684703
v 11.456274 11.219080 14.684705
v -9.151183 1.168694 19.728735
v 16.798668 1.168694 19.728739
v -3.787630 11.219079 29.969666
v 11.456272 11.219079 29.969666
v -9.151186 1.283475 33.858078
v 16.798668 1.283475 33.858082
v 3.819552 18.203537 8.048839
v 3.819552 18.203537 -11.835144
v 8.758549 18.203537 -11.835142
v 8.758547 18.203537 8.048841
v 3.819552 20.858076 8.048839
v 3.819552 20.858076 -11.835144
v 8.758549 20.858076 -11.835142
v 8.758547 20.858076 8.048841
v -21.287251 -21.442665 19.477787
v -21.287230 -21.442665 -23.096701
v 21.287245 -21.442665 -23.096682
v 21.287237 -21.442665 19.477797
v -9.151183 -21.442665 19.812441
v 16.798668 -21.442665 19.812443
v -9.151186 -21.327885 33.941784
v 16.798668 -21.327885 33.941788
vt 0.626707 0.980380
vt 0.655419 0.939837
vt 0.852112 0.939837
vt 0.881074 0.980380
vt 0.894135 0.699113
vt 0.603073 0.699113
vt 0.506982 0.398781
vt 0.988885 0.398781
vt 0.158602 0.893870
vt 0.158602 0.751490
vt 0.350890 0.842596
vt 0.350890 0.973774
vt 0.211372 0.573136
vt 0.110989 0.699113
vt 0.018113 0.398781
vt 0.152483 0.398781
vt 0.395777 0.699113
vt 0.380200 0.573373
vt 0.439880 0.398781
vt 0.489629 0.398781
vt 0.164543 0.398781
vt 0.427066 0.398781
vt 0.372438 0.552945
vt 0.218223 0.552728
vt 0.164543 0.035264
vt 0.427066 0.035264
vt 0.143550 0.751490
vt 0.143550 0.893870
vt 0.007764 0.893870
vt 0.007764 0.751490
vt 0.920775 0.662051
vt 0.993329 0.662051
vt 0.993329 0.991291
vt 0.920775 0.991291
vt 0.625926 0.726013
vt 0.655269 0.890980
vt 0.880293 0.726013
vt 0.851962 0.890980
vt 0.452987 0.709062
vt 0.549975 0.709062
vt 0.549975 0.829681
vt 0.452987 0.829681
vt 0.506982 0.035264
vt 0.988885 0.035264
vt 0.018113 0.035264
vt 0.152483 0.035264
vt 0.603763 0.973774
vt 0.603763 0.842596
vt 1.253400 0.230590
vt 1.252711 0.353323
vt 1.038771 0.346797
vt 1.042324 0.230307
vt 1.627307 -0.000322
vt 1.628384 0.350838
vt 1.527198 -0.002775
vt 1.277223 0.351915
vt 1.313160 -0.002118
vt 1.276146 0.000755
vt 0.439880 0.035264
vt 0.489629 0.035264
vn 0.000000 1.000000 0.000000
vn -0.896258 0.443533 -0.000000
vn 0.000000 0.443534 -0.896258
vn 0.896258 0.443533 0.000000
vn -0.881448 0.472277 -0.001843
vn -0.020894 0.453813 0.890852
vn 0.054302 0.466742 0.882725
vn -0.000000 0.470160 0.882581
vn -0.000000 0.364446 0.931225
vn 0.882223 0.470828 -0.001837
vn -0.000000 0.003702 0.999993
vn 1.000000 0.000000 0.000000
vn -1.000000 0.000000 0.000000
vn -0.000000 0.000000 1.000000
vn 0.000000 0.000000 -1.000000
vn 0.000000 -0.003702 -0.999993
vn -0.027564 0.003700 0.999613
vn -0.000000 -0.999967 0.008123
vn -0.000000 -1.000000 0.000000
vn 0.074349 0.003692 0.997225
usemtl Material
s off
f 3/1/1 19/2/1 20/3/1
f 3/1/1 20/3/1 4/4/1
f 1/5/2 2/6/2 6/7/2
f 1/5/2 6/7/2 5/8/2
f 2/6/3 3/5/3 7/8/3
f 2/6/3 7/8/3 6/7/3
f 3/5/4 4/6/4 8/7/4
f 3/5/4 8/7/4 7/8/4
f 13/9/5 9/10/5 11/11/5
f 13/9/5 11/11/5 15/12/5
f 9/13/6 1/14/6 5/15/6
f 9/13/6 5/15/6 11/16/6
f 4/17/7 10/18/7 12/19/7
f 4/17/7 12/19/7 8/20/7
f 1/14/8 9/13/8 10/18/8
f 1/14/8 10/18/8 4/17/8
f 15/21/9 16/22/9 14/23/9
f 15/21/9 14/23/9 13/24/9
f 10/10/10 14/9/10 16/12/10
f 10/10/10 16/12/10 12/11/10
f 15/21/11 31/25/11 32/26/11
f 15/21/11 32/26/11 16/22/11
f 9/27/1 13/28/1 14/29/1
f 9/27/1 14/29/1 10/30/1
f 19/31/12 23/32/12 24/33/12
f 19/31/12 24/33/12 20/34/12
f 2/35/1 18/36/1 19/2/1
f 2/35/1 19/2/1 3/1/1
f 1/37/1 17/38/1 18/36/1
f 1/37/1 18/36/1 2/35/1
f 17/38/1 1/37/1 4/4/1
f 17/38/1 4/4/1 20/3/1
f 21/33/1 24/34/1 23/31/1
f 21/33/1 23/31/1 22/32/1
f 17/33/13 21/34/13 22/31/13
f 17/33/13 22/31/13 18/32/13
f 21/39/14 17/40/14 20/41/14
f 21/39/14 20/41/14 24/42/14
f 18/41/15 22/42/15 23/39/15
f 18/41/15 23/39/15 19/40/15
f 26/43/16 6/7/16 7/8/16
f 26/43/16 7/8/16 27/44/16
f 5/15/17 25/45/17 29/46/17
f 5/15/17 29/46/17 11/16/17
f 31/47/13 15/12/13 11/11/13
f 31/47/13 11/11/13 29/48/13
f 27/44/12 7/8/12 8/7/12
f 27/44/12 8/7/12 28/43/12
f 31/49/18 29/50/18 30/51/18
f 31/49/18 30/51/18 32/52/18
f 25/53/19 26/54/19 29/55/19
f 26/54/19 27/56/19 29/55/19
f 27/56/19 30/57/19 29/55/19
f 27/56/19 28/58/19 30/57/19
f 12/19/20 30/59/20 28/60/20
f 12/19/20 28/60/20 8/20/20
f 30/48/12 12/11/12 16/12/12
f 30/48/12 16/12/12 32/47/12
f 25/44/13 5/8/13 6/7/13
f 25/44/13 6/7/13 26/43/13
