# Blender v2.63 (sub 0) OBJ File: 'skyscraper.blend'
# www.blender.org
mtllib skyscraper.mtl
o Cube
v 6.013234 -10.014832 -6.453413
v 6.013234 -10.014832 5.454501
v -5.894681 -10.014832 5.454500
v -5.894679 -10.014832 -6.453415
v 6.013237 39.568253 -6.453410
v 6.013230 39.568253 5.454504
v -5.894682 39.568253 5.454499
v -5.894680 39.568253 -6.453413
v -4.740959 40.821766 4.300776
v -4.740957 40.821766 -5.299690
v 4.859507 40.821766 4.300781
v 4.859512 40.821766 -5.299687
v 4.859507 63.523460 4.300781
v 4.859512 63.523460 -5.299687
v -4.740957 63.523460 -5.299690
v -4.740959 63.523460 4.300776
v -3.196086 66.131287 2.723505
v -3.196085 66.131287 -3.722417
v 3.314636 66.131287 2.723508
v 3.314640 66.131287 -3.722415
v 3.314636 82.361382 2.723508
v 3.314640 82.361382 -3.722415
v -3.196085 82.361382 -3.722417
v -3.196086 82.361382 2.723505
v -0.438244 88.449348 -0.001935
v -0.438244 88.449348 -0.996975
v 0.556796 88.449348 -0.001935
v 0.556796 88.449348 -0.996974
v 3.470275 34.510769 7.640028
v -3.351728 34.510769 7.640023
v -3.351727 -10.014832 7.640025
v 3.470277 -10.014832 7.640025
v -3.351730 -10.014832 14.101128
v 3.470274 -10.014832 14.101128
v 3.470273 34.510769 14.101131
v -3.351731 34.510769 14.101126
v -1.099849 15.575183 20.683180
v 1.218384 15.575183 20.683178
v -1.099849 -10.014832 20.683180
v 1.218385 -10.014832 20.683180
vt 0.839844 0.976562
vt 0.699219 0.976562
vt 0.699219 0.832031
vt 0.839844 0.832031
vt 0.425781 0.007812
vt 0.425781 0.476562
vt 0.253906 0.476562
vt 0.253906 0.007812
vt 0.289062 0.500000
vt 0.425781 0.500000
vt 0.496094 0.035156
vt 0.640625 0.035156
vt 0.625000 0.050781
vt 0.511719 0.050781
vt 0.425781 0.718750
vt 0.289062 0.718750
vt 0.625000 0.218750
vt 0.511719 0.218750
vt 0.332031 0.753906
vt 0.425781 0.753906
vt 0.609375 0.246094
vt 0.531250 0.246094
vt 0.425781 0.906250
vt 0.332031 0.906250
vt 0.609375 0.367188
vt 0.531250 0.367188
vt 0.398438 0.968750
vt 0.425781 0.968750
vt 0.574219 0.421875
vt 0.562500 0.421875
vt 0.425781 0.992188
vt 0.398438 0.992188
vt 0.773438 0.535156
vt 0.628906 0.535156
vt 0.660156 0.472656
vt 0.742188 0.472656
vt 0.210938 0.007812
vt 0.210938 0.429688
vt 0.671875 0.945312
vt 0.671875 0.863281
vt 0.593750 0.945312
vt 0.593750 0.863281
vt 0.109375 0.429688
vt 0.109375 0.007812
vt 0.660156 0.394531
vt 0.742188 0.394531
vt 0.687500 0.234375
vt 0.714844 0.234375
vt 0.007812 0.007812
vt 0.007812 0.246094
vt 0.515625 0.917969
vt 0.515625 0.890625
vt 0.714844 0.042969
vt 0.687500 0.042969
vn 0.000000 -1.000000 0.000000
vn 1.000000 0.000000 0.000000
vn -1.000000 -0.000000 -0.000000
vn 0.000000 0.000000 -1.000000
vn -0.735787 0.677213 -0.000000
vn -0.000000 0.677213 0.735787
vn 0.000000 0.677213 -0.735787
vn 0.735787 0.677213 0.000000
vn 1.000000 0.000000 0.000001
vn -0.000000 0.000000 1.000000
vn -0.860365 0.509679 -0.000000
vn -0.000000 0.517527 0.855667
vn 0.000000 0.517527 -0.855667
vn 0.860365 0.509679 0.000000
vn -0.910896 0.412635 -0.000000
vn -0.000000 0.408601 0.912713
vn 0.000000 0.408601 -0.912713
vn 0.910896 0.412635 0.000001
vn 0.000000 1.000000 0.000000
vn -0.000001 0.396682 0.917956
vn -0.651796 0.000000 0.758394
vn 0.651796 -0.000000 0.758394
vn -1.000000 -0.000000 -0.000001
vn -0.000000 0.328332 0.944562
vn -0.946158 -0.000000 0.323704
vn 0.946158 0.000000 0.323705
usemtl Material.003
s off
f 1/1/1 2/2/1 3/3/1
f 1/1/1 3/3/1 4/4/1
f 1/5/2 5/6/2 6/7/2
f 1/5/2 6/7/2 2/8/2
f 3/8/3 7/7/3 8/6/3
f 3/8/3 8/6/3 4/5/3
f 5/6/4 1/5/4 4/8/4
f 5/6/4 4/8/4 8/7/4
f 8/6/5 7/7/5 9/9/5
f 8/6/5 9/9/5 10/10/5
f 7/11/6 6/12/6 11/13/6
f 7/11/6 11/13/6 9/14/6
f 5/6/7 8/7/7 10/9/7
f 5/6/7 10/9/7 12/10/7
f 6/7/8 5/6/8 12/10/8
f 6/7/8 12/10/8 11/9/8
f 11/9/9 12/10/9 14/15/9
f 11/9/9 14/15/9 13/16/9
f 12/10/4 10/9/4 15/16/4
f 12/10/4 15/16/4 14/15/4
f 9/14/10 11/13/10 13/17/10
f 9/14/10 13/17/10 16/18/10
f 10/10/3 9/9/3 16/16/3
f 10/10/3 16/16/3 15/15/3
f 15/15/11 16/16/11 17/19/11
f 15/15/11 17/19/11 18/20/11
f 16/18/12 13/17/12 19/21/12
f 16/18/12 19/21/12 17/22/12
f 14/15/13 15/16/13 18/19/13
f 14/15/13 18/19/13 20/20/13
f 13/16/14 14/15/14 20/20/14
f 13/16/14 20/20/14 19/19/14
f 19/19/9 20/20/9 22/23/9
f 19/19/9 22/23/9 21/24/9
f 20/20/4 18/19/4 23/24/4
f 20/20/4 23/24/4 22/23/4
f 17/22/10 19/21/10 21/25/10
f 17/22/10 21/25/10 24/26/10
f 18/20/3 17/19/3 24/24/3
f 18/20/3 24/24/3 23/23/3
f 23/23/15 24/24/15 25/27/15
f 23/23/15 25/27/15 26/28/15
f 24/26/16 21/25/16 27/29/16
f 24/26/16 27/29/16 25/30/16
f 22/23/17 23/24/17 26/28/17
f 22/23/17 26/28/17 28/28/17
f 21/24/18 22/23/18 28/28/18
f 21/24/18 28/28/18 27/27/18
f 28/31/19 26/28/19 25/27/19
f 28/31/19 25/27/19 27/32/19
f 6/33/20 7/34/20 30/35/20
f 6/33/20 30/35/20 29/36/20
f 7/7/21 3/8/21 31/37/21
f 7/7/21 31/37/21 30/38/21
f 2/8/22 6/7/22 29/38/22
f 2/8/22 29/38/22 32/37/22
f 3/3/1 2/2/1 32/39/1
f 3/3/1 32/39/1 31/40/1
f 31/40/1 32/39/1 34/41/1
f 31/40/1 34/41/1 33/42/1
f 32/37/2 29/38/2 35/43/2
f 32/37/2 35/43/2 34/44/2
f 30/38/23 31/37/23 33/44/23
f 30/38/23 33/44/23 36/43/23
f 29/36/19 30/35/19 36/45/19
f 29/36/19 36/45/19 35/46/19
f 35/46/24 36/45/24 37/47/24
f 35/46/24 37/47/24 38/48/24
f 36/43/25 33/44/25 39/49/25
f 36/43/25 39/49/25 37/50/25
f 34/44/26 35/43/26 38/50/26
f 34/44/26 38/50/26 40/49/26
f 33/42/1 34/41/1 40/51/1
f 33/42/1 40/51/1 39/52/1
f 40/53/10 38/48/10 37/47/10
f 40/53/10 37/47/10 39/54/10
