# Blender v2.63 (sub 0) OBJ File: 'target.blend'
# www.blender.org
mtllib target.mtl
o Sphere_Sphere.001
v 0.004678 -0.005985 2.217622
v 2.609884 -0.004583 2.048754
v 4.818472 -0.000590 1.567859
v 6.294202 0.000832 1.396711
v 6.812410 0.012437 -0.000810
v 6.294202 0.024042 -1.398331
v 4.818471 0.025463 -1.569479
v 2.609885 0.029457 -2.050374
v 2.260853 1.332015 -2.039558
v 4.173545 2.432277 -1.549492
v 5.451566 3.168696 -1.372218
v 5.900347 3.416185 0.027455
v 5.451566 3.145485 1.422824
v 4.173545 2.406224 1.587845
v 2.260853 1.297975 2.059571
v 1.307281 2.251514 2.067489
v 2.411575 4.168134 1.602476
v 3.149440 5.447532 1.441941
v 3.408544 5.907902 0.048147
v 3.149440 5.470742 -1.353101
v 2.411574 4.194186 -1.534861
v 1.307281 2.285554 -2.031639
v 0.004678 2.634573 -2.028741
v 0.004678 4.839090 -1.529506
v 0.004678 6.313349 -1.346104
v 0.004678 6.819934 0.055720
v 0.004678 6.290139 1.448938
v 0.004678 4.813038 1.607831
v 0.004678 2.600534 2.070388
v -1.297925 2.251514 2.067489
v -2.402219 4.168134 1.602476
v -3.140084 5.447531 1.441941
v -3.399188 5.907902 0.048147
v -3.140084 5.470742 -1.353101
v -2.402218 4.194186 -1.534861
v -1.297925 2.285554 -2.031639
v -2.251497 1.332015 -2.039558
v -4.164188 2.432276 -1.549492
v -5.442209 3.168696 -1.372218
v -5.890990 3.416185 0.027455
v -5.442210 3.145485 1.422824
v -4.164189 2.406224 1.587845
v -2.251496 1.297975 2.059571
v -2.600528 -0.004583 2.048754
v -4.809115 -0.000590 1.567859
v -6.284845 0.000831 1.396711
v -6.803053 0.012437 -0.000810
v -6.284845 0.024042 -1.398331
v -4.809114 0.025463 -1.569479
v -2.600528 0.029456 -2.050374
v 0.004677 0.030858 -2.219243
v -2.251496 -1.273102 -2.061191
v -4.164187 -2.381350 -1.589465
v -5.442209 -3.120611 -1.424445
v -5.890990 -3.391311 -0.029075
v -5.442209 -3.143822 1.370597
v -4.164189 -2.407403 1.547872
v -2.251496 -1.307141 2.037938
v -1.297925 -2.260679 2.030020
v -2.402219 -4.169313 1.533241
v -3.140083 -5.445868 1.351481
v -3.399188 -5.883029 -0.049767
v -3.140084 -5.422657 -1.443561
v -2.402217 -4.143260 -1.604096
v -1.297925 -2.226640 -2.069109
v 0.004678 -2.575660 -2.072007
v 0.004679 -4.788164 -1.609452
v 0.004678 -6.265265 -1.450558
v 0.004678 -6.795060 -0.057340
v 0.004679 -6.288476 1.344484
v 0.004678 -4.814217 1.527886
v 0.004678 -2.609699 2.027121
v 1.307281 -2.260680 2.030020
v 2.411575 -4.169313 1.533241
v 3.149440 -5.445868 1.351481
v 3.408544 -5.883029 -0.049767
v 3.149440 -5.422657 -1.443561
v 2.411575 -4.143259 -1.604096
v 1.307282 -2.226640 -2.069109
v 2.260853 -1.273101 -2.061191
v 4.173545 -2.381349 -1.589465
v 5.451565 -3.120611 -1.424445
v 5.900347 -3.391311 -0.029075
v 5.451566 -3.143821 1.370597
v 4.173545 -2.407403 1.547872
v 2.260853 -1.307141 2.037938
vt 0.645635 0.506305
vt 0.500937 0.504921
vt 0.625777 0.578661
vt 0.776009 0.506593
vt 0.739093 0.644738
vt 0.864340 0.507211
vt 0.816347 0.690164
vt 0.928881 0.503456
vt 0.872929 0.719653
vt 0.933994 0.498046
vt 0.877291 0.717319
vt 0.835328 0.496056
vt 0.790650 0.665230
vt 0.686433 0.491990
vt 0.660770 0.586196
vt 0.497855 0.488812
vt 0.590809 0.655043
vt 0.665474 0.789611
vt 0.715437 0.879186
vt 0.713378 0.879201
vt 0.681157 0.824813
vt 0.636801 0.746041
vt 0.572038 0.631440
vt 0.498915 0.650048
vt 0.496882 0.781711
vt 0.495573 0.872183
vt 0.493775 0.935303
vt 0.492618 0.936110
vt 0.493841 0.833397
vt 0.495457 0.679316
vt 0.401014 0.652275
vt 0.324163 0.784084
vt 0.272617 0.871540
vt 0.276925 0.871665
vt 0.312155 0.818682
vt 0.358437 0.741678
vt 0.426443 0.629358
vt 0.374378 0.575229
vt 0.259794 0.637821
vt 0.182200 0.680674
vt 0.123930 0.708186
vt 0.117467 0.705708
vt 0.203749 0.656621
vt 0.333360 0.581699
vt 0.310442 0.487255
vt 0.164253 0.487586
vt 0.067688 0.487105
vt 0.074763 0.492612
vt 0.139813 0.497972
vt 0.226986 0.499589
vt 0.356567 0.502612
vt 0.377345 0.431096
vt 0.267218 0.364475
vt 0.193582 0.320296
vt 0.138744 0.283748
vt 0.132650 0.275373
vt 0.213886 0.322937
vt 0.337660 0.394468
vt 0.407165 0.327677
vt 0.337612 0.205105
vt 0.292089 0.124425
vt 0.295948 0.134816
vt 0.327084 0.193287
vt 0.368540 0.267558
vt 0.430814 0.379533
vt 0.502749 0.361301
vt 0.504172 0.233243
vt 0.505199 0.148277
vt 0.505169 0.081994
vt 0.504228 0.070875
vt 0.502838 0.163344
vt 0.500506 0.304039
vt 0.593394 0.329660
vt 0.667561 0.208131
vt 0.715971 0.127899
vt 0.713992 0.138294
vt 0.682841 0.196499
vt 0.639299 0.270245
vt 0.574302 0.381150
vt 0.626636 0.434063
vt 0.738914 0.369716
vt 0.814487 0.326868
vt 0.869339 0.291161
vt 0.873541 0.282815
vt 0.789427 0.329045
vt 0.661504 0.398181
vn 0.151280 0.008179 -0.988433
vn 0.000000 0.008301 -0.999939
vn 0.131016 0.083834 -0.987823
vn 0.156133 0.008179 -0.987671
vn 0.135197 0.086245 -0.987030
vn 0.665853 0.006195 -0.746055
vn 0.576617 0.339091 -0.743278
vn 1.000000 0.000000 0.000000
vn 0.866024 0.499954 0.004151
vn 0.665853 -0.006195 0.746055
vn 0.576617 0.326701 0.748802
vn 0.156133 -0.008179 0.987671
vn 0.135197 0.069857 0.988342
vn 0.151280 -0.008179 0.988433
vn 0.131016 0.067415 0.989074
vn 0.000000 -0.008301 0.999939
vn 0.075625 0.122776 0.989532
vn 0.078066 0.127018 0.988800
vn 0.332926 0.570421 0.750816
vn 0.499985 0.865993 0.007172
vn 0.332926 0.582812 -0.741264
vn 0.078066 0.143406 -0.986572
vn 0.075625 0.139195 -0.987365
vn 0.000000 0.159459 -0.987182
vn 0.000000 0.164342 -0.986389
vn 0.000000 0.672018 -0.740501
vn 0.000000 0.999939 0.008301
vn 0.000000 0.659627 0.751579
vn 0.000000 0.147923 0.988983
vn 0.000000 0.143071 0.989685
vn -0.075625 0.122776 0.989532
vn -0.078066 0.127018 0.988800
vn -0.332926 0.570421 0.750816
vn -0.499985 0.865993 0.007172
vn -0.332926 0.582812 -0.741264
vn -0.078066 0.143406 -0.986572
vn -0.075625 0.139195 -0.987365
vn -0.131016 0.083834 -0.987823
vn -0.135197 0.086245 -0.987030
vn -0.576617 0.339091 -0.743278
vn -0.866024 0.499954 0.004151
vn -0.576617 0.326701 0.748802
vn -0.135197 0.069857 0.988342
vn -0.131016 0.067415 0.989074
vn -0.151280 -0.008179 0.988433
vn -0.156133 -0.008179 0.987671
vn -0.665853 -0.006195 0.746055
vn -1.000000 0.000000 0.000000
vn -0.665853 0.006195 -0.746055
vn -0.156133 0.008179 -0.987671
vn -0.151280 0.008179 -0.988433
vn -0.131016 -0.067415 -0.989074
vn -0.135197 -0.069857 -0.988342
vn -0.576617 -0.326701 -0.748802
vn -0.866024 -0.499954 -0.004151
vn -0.576617 -0.339091 0.743278
vn -0.135197 -0.086245 0.987030
vn -0.131016 -0.083834 0.987823
vn -0.075625 -0.139195 0.987365
vn -0.078066 -0.143406 0.986572
vn -0.332926 -0.582812 0.741264
vn -0.499985 -0.865993 -0.007172
vn -0.332926 -0.570421 -0.750816
vn -0.078066 -0.127018 -0.988800
vn -0.075625 -0.122776 -0.989532
vn 0.000000 -0.143071 -0.989685
vn 0.000000 -0.147923 -0.988983
vn 0.000000 -0.659627 -0.751579
vn 0.000000 -0.999939 -0.008301
vn 0.000000 -0.672018 0.740501
vn 0.000000 -0.164342 0.986389
vn 0.000000 -0.159459 0.987182
vn 0.075625 -0.139195 0.987365
vn 0.078066 -0.143406 0.986572
vn 0.332926 -0.582812 0.741264
vn 0.499985 -0.865993 -0.007172
vn 0.332926 -0.570421 -0.750816
vn 0.078066 -0.127018 -0.988800
vn 0.075625 -0.122776 -0.989532
vn 0.131016 -0.067415 -0.989074
vn 0.135197 -0.069857 -0.988342
vn 0.576617 -0.326701 -0.748802
vn 0.866024 -0.499954 -0.004151
vn 0.576617 -0.339091 0.743278
vn 0.135197 -0.086245 0.987030
vn 0.131016 -0.083834 0.987823
usemtl Material
s 1
f 8/1/1 51/2/2 9/3/3
f 7/4/4 8/1/1 9/3/3
f 7/4/4 9/3/3 10/5/5
f 6/6/6 7/4/4 10/5/5
f 6/6/6 10/5/5 11/7/7
f 5/8/8 6/6/6 11/7/7
f 5/8/8 11/7/7 12/9/9
f 4/10/10 5/8/8 12/9/9
f 4/10/10 12/9/9 13/11/11
f 3/12/12 4/10/10 13/11/11
f 3/12/12 13/11/11 14/13/13
f 2/14/14 3/12/12 14/13/13
f 2/14/14 14/13/13 15/15/15
f 1/16/16 2/14/14 15/15/15
f 1/16/16 15/15/15 16/17/17
f 15/15/15 14/13/13 17/18/18
f 15/15/15 17/18/18 16/17/17
f 14/13/13 13/11/11 18/19/19
f 14/13/13 18/19/19 17/18/18
f 13/11/11 12/9/9 19/20/20
f 13/11/11 19/20/20 18/19/19
f 12/9/9 11/7/7 20/21/21
f 12/9/9 20/21/21 19/20/20
f 11/7/7 10/5/5 21/22/22
f 11/7/7 21/22/22 20/21/21
f 10/5/5 9/3/3 22/23/23
f 10/5/5 22/23/23 21/22/22
f 9/3/3 51/2/2 22/23/23
f 22/23/23 51/2/2 23/24/24
f 21/22/22 22/23/23 23/24/24
f 21/22/22 23/24/24 24/25/25
f 20/21/21 21/22/22 24/25/25
f 20/21/21 24/25/25 25/26/26
f 19/20/20 20/21/21 25/26/26
f 19/20/20 25/26/26 26/27/27
f 18/19/19 19/20/20 26/27/27
f 18/19/19 26/27/27 27/28/28
f 17/18/18 18/19/19 27/28/28
f 17/18/18 27/28/28 28/29/29
f 16/17/17 17/18/18 28/29/29
f 16/17/17 28/29/29 29/30/30
f 1/16/16 16/17/17 29/30/30
f 1/16/16 29/30/30 30/31/31
f 29/30/30 28/29/29 31/32/32
f 29/30/30 31/32/32 30/31/31
f 28/29/29 27/28/28 32/33/33
f 28/29/29 32/33/33 31/32/32
f 27/28/28 26/27/27 33/34/34
f 27/28/28 33/34/34 32/33/33
f 26/27/27 25/26/26 34/35/35
f 26/27/27 34/35/35 33/34/34
f 25/26/26 24/25/25 35/36/36
f 25/26/26 35/36/36 34/35/35
f 24/25/25 23/24/24 36/37/37
f 24/25/25 36/37/37 35/36/36
f 23/24/24 51/2/2 36/37/37
f 36/37/37 51/2/2 37/38/38
f 35/36/36 36/37/37 37/38/38
f 35/36/36 37/38/38 38/39/39
f 34/35/35 35/36/36 38/39/39
f 34/35/35 38/39/39 39/40/40
f 33/34/34 34/35/35 39/40/40
f 33/34/34 39/40/40 40/41/41
f 32/33/33 33/34/34 40/41/41
f 32/33/33 40/41/41 41/42/42
f 31/32/32 32/33/33 41/42/42
f 31/32/32 41/42/42 42/43/43
f 30/31/31 31/32/32 42/43/43
f 30/31/31 42/43/43 43/44/44
f 1/16/16 30/31/31 43/44/44
f 1/16/16 43/44/44 44/45/45
f 43/44/44 42/43/43 45/46/46
f 43/44/44 45/46/46 44/45/45
f 42/43/43 41/42/42 46/47/47
f 42/43/43 46/47/47 45/46/46
f 41/42/42 40/41/41 47/48/48
f 41/42/42 47/48/48 46/47/47
f 40/41/41 39/40/40 48/49/49
f 40/41/41 48/49/49 47/48/48
f 39/40/40 38/39/39 49/50/50
f 39/40/40 49/50/50 48/49/49
f 38/39/39 37/38/38 50/51/51
f 38/39/39 50/51/51 49/50/50
f 37/38/38 51/2/2 50/51/51
f 50/51/51 51/2/2 52/52/52
f 49/50/50 50/51/51 52/52/52
f 49/50/50 52/52/52 53/53/53
f 48/49/49 49/50/50 53/53/53
f 48/49/49 53/53/53 54/54/54
f 47/48/48 48/49/49 54/54/54
f 47/48/48 54/54/54 55/55/55
f 46/47/47 47/48/48 55/55/55
f 46/47/47 55/55/55 56/56/56
f 45/46/46 46/47/47 56/56/56
f 45/46/46 56/56/56 57/57/57
f 44/45/45 45/46/46 57/57/57
f 44/45/45 57/57/57 58/58/58
f 1/16/16 44/45/45 58/58/58
f 1/16/16 58/58/58 59/59/59
f 58/58/58 57/57/57 60/60/60
f 58/58/58 60/60/60 59/59/59
f 57/57/57 56/56/56 61/61/61
f 57/57/57 61/61/61 60/60/60
f 56/56/56 55/55/55 62/62/62
f 56/56/56 62/62/62 61/61/61
f 55/55/55 54/54/54 63/63/63
f 55/55/55 63/63/63 62/62/62
f 54/54/54 53/53/53 64/64/64
f 54/54/54 64/64/64 63/63/63
f 53/53/53 52/52/52 65/65/65
f 53/53/53 65/65/65 64/64/64
f 52/52/52 51/2/2 65/65/65
f 65/65/65 51/2/2 66/66/66
f 64/64/64 65/65/65 66/66/66
f 64/64/64 66/66/66 67/67/67
f 63/63/63 64/64/64 67/67/67
f 63/63/63 67/67/67 68/68/68
f 62/62/62 63/63/63 68/68/68
f 62/62/62 68/68/68 69/69/69
f 61/61/61 62/62/62 69/69/69
f 61/61/61 69/69/69 70/70/70
f 60/60/60 61/61/61 70/70/70
f 60/60/60 70/70/70 71/71/71
f 59/59/59 60/60/60 71/71/71
f 59/59/59 71/71/71 72/72/72
f 1/16/16 59/59/59 72/72/72
f 1/16/16 72/72/72 73/73/73
f 72/72/72 71/71/71 74/74/74
f 72/72/72 74/74/74 73/73/73
f 71/71/71 70/70/70 75/75/75
f 71/71/71 75/75/75 74/74/74
f 70/70/70 69/69/69 76/76/76
f 70/70/70 76/76/76 75/75/75
f 69/69/69 68/68/68 77/77/77
f 69/69/69 77/77/77 76/76/76
f 68/68/68 67/67/67 78/78/78
f 68/68/68 78/78/78 77/77/77
f 67/67/67 66/66/66 79/79/79
f 67/67/67 79/79/79 78/78/78
f 66/66/66 51/2/2 79/79/79
f 79/79/79 51/2/2 80/80/80
f 78/78/78 79/79/79 80/80/80
f 78/78/78 80/80/80 81/81/81
f 77/77/77 78/78/78 81/81/81
f 77/77/77 81/81/81 82/82/82
f 76/76/76 77/77/77 82/82/82
f 76/76/76 82/82/82 83/83/83
f 75/75/75 76/76/76 83/83/83
f 75/75/75 83/83/83 84/84/84
f 74/74/74 75/75/75 84/84/84
f 74/74/74 84/84/84 85/85/85
f 73/73/73 74/74/74 85/85/85
f 73/73/73 85/85/85 86/86/86
f 1/16/16 73/73/73 86/86/86
f 1/16/16 86/86/86 2/14/14
f 86/86/86 85/85/85 3/12/12
f 86/86/86 3/12/12 2/14/14
f 85/85/85 84/84/84 4/10/10
f 85/85/85 4/10/10 3/12/12
f 84/84/84 83/83/83 5/8/8
f 84/84/84 5/8/8 4/10/10
f 83/83/83 82/82/82 6/6/6
f 83/83/83 6/6/6 5/8/8
f 82/82/82 81/81/81 7/4/4
f 82/82/82 7/4/4 6/6/6
f 81/81/81 80/80/80 8/1/1
f 81/81/81 8/1/1 7/4/4
f 80/80/80 51/2/2 8/1/1
