# Blender v2.58 (sub 1) OBJ File: 'textured_cube.blend'
# www.blender.org
v 0.031220 -0.582926 -1.546452
v 1.536742 -0.801379 -0.248114
v 0.241295 -1.399188 1.153471
v -1.264227 -1.180735 -0.144868
v -0.203768 1.313097 -0.954948
v 1.301753 1.094644 0.343391
v 0.006305 0.496835 1.744975
v -1.499216 0.715288 0.446637
v 1.301753 1.094644 0.343391
v -0.203768 1.313097 -0.954948
v 1.536742 -0.801379 -0.248114
v 0.031220 -0.582926 -1.546452
vt 0.000000 0.000000
vt 1.000000 0.000000
vt 1.000000 1.000000
vt 0.000000 1.000000
vn 0.117495 -0.948011 -0.295752
vn -0.117495 0.948011 0.295752
vn 0.752761 -0.109226 0.649169
vn -0.647724 -0.298905 0.700792
vn -0.752761 0.109227 -0.649169
vn 0.000000 0.000000 0.000000
vn 0.647724 0.298905 -0.700792
usemtl Cube_test64rgb.tga
s off
f 1/1/1 2/2/1 3/3/1
f 1/1/1 3/3/1 4/4/1
f 5/1/2 8/2/2 7/3/2
f 5/1/2 7/3/2 6/4/2
f 2/1/3 6/2/3 7/3/3
f 2/1/3 7/3/3 3/4/3
f 3/1/4 7/2/4 8/3/4
f 3/1/4 8/3/4 4/4/4
f 5/1/5 1/2/5 4/3/5
f 5/1/5 4/3/5 8/4/5
f 5/1/6 6/2/6 9/3/6
f 5/1/6 9/3/6 10/4/6
f 6/1/6 2/2/6 11/3/6
f 6/1/6 11/3/6 9/4/6
f 1/1/6 5/2/6 10/3/6
f 1/1/6 10/3/6 12/4/6
f 2/1/6 1/2/6 12/3/6
f 2/1/6 12/3/6 11/4/6
f 12/1/7 10/2/7 9/3/7
f 12/1/7 9/3/7 11/4/7
